<mxfile host="app.diagrams.net" modified="2024-04-22T10:46:25.223Z" agent="Mozilla/5.0 (Macintosh; Intel Mac OS X 10_15_7) AppleWebKit/605.1.15 (KHTML, like Gecko) Version/17.4.1 Safari/605.1.15" etag="prydCE4u2-uveMS0hL1L" version="24.2.7" type="google">
  <diagram name="Sayfa -1" id="dY_Y6SpMuflHAtmVUPuI">
    <mxGraphModel grid="1" page="1" gridSize="10" guides="1" tooltips="1" connect="1" arrows="1" fold="1" pageScale="1" pageWidth="827" pageHeight="1169" math="0" shadow="0">
      <root>
        <mxCell id="0" />
        <mxCell id="1" parent="0" />
        <mxCell id="D1JowyFFF-B-z9rxGy0s-8" style="edgeStyle=orthogonalEdgeStyle;rounded=0;orthogonalLoop=1;jettySize=auto;html=1;" edge="1" parent="1" source="D1JowyFFF-B-z9rxGy0s-1">
          <mxGeometry relative="1" as="geometry">
            <mxPoint x="480" y="210" as="targetPoint" />
          </mxGeometry>
        </mxCell>
        <mxCell id="D1JowyFFF-B-z9rxGy0s-1" value="Conv2D" style="shape=cube;whiteSpace=wrap;html=1;boundedLbl=1;backgroundOutline=1;darkOpacity=0.05;darkOpacity2=0.1;fillColor=#d5e8d4;strokeColor=#82b366;" vertex="1" parent="1">
          <mxGeometry x="280" y="160" width="120" height="100" as="geometry" />
        </mxCell>
        <mxCell id="D1JowyFFF-B-z9rxGy0s-7" style="edgeStyle=orthogonalEdgeStyle;rounded=0;orthogonalLoop=1;jettySize=auto;html=1;" edge="1" parent="1" source="D1JowyFFF-B-z9rxGy0s-3">
          <mxGeometry relative="1" as="geometry">
            <mxPoint x="480" y="330" as="targetPoint" />
          </mxGeometry>
        </mxCell>
        <mxCell id="D1JowyFFF-B-z9rxGy0s-3" value="Conv2D" style="shape=cube;whiteSpace=wrap;html=1;boundedLbl=1;backgroundOutline=1;darkOpacity=0.05;darkOpacity2=0.1;fillColor=#d5e8d4;strokeColor=#82b366;" vertex="1" parent="1">
          <mxGeometry x="280" y="280" width="120" height="100" as="geometry" />
        </mxCell>
        <mxCell id="D1JowyFFF-B-z9rxGy0s-6" style="edgeStyle=orthogonalEdgeStyle;rounded=0;orthogonalLoop=1;jettySize=auto;html=1;" edge="1" parent="1" source="D1JowyFFF-B-z9rxGy0s-4">
          <mxGeometry relative="1" as="geometry">
            <mxPoint x="480" y="450" as="targetPoint" />
          </mxGeometry>
        </mxCell>
        <mxCell id="D1JowyFFF-B-z9rxGy0s-4" value="Conv2D" style="shape=cube;whiteSpace=wrap;html=1;boundedLbl=1;backgroundOutline=1;darkOpacity=0.05;darkOpacity2=0.1;fillColor=#d5e8d4;strokeColor=#82b366;" vertex="1" parent="1">
          <mxGeometry x="280" y="400" width="120" height="100" as="geometry" />
        </mxCell>
        <mxCell id="D1JowyFFF-B-z9rxGy0s-9" style="edgeStyle=orthogonalEdgeStyle;rounded=0;orthogonalLoop=1;jettySize=auto;html=1;" edge="1" parent="1">
          <mxGeometry relative="1" as="geometry">
            <mxPoint x="290" y="209.71" as="targetPoint" />
            <mxPoint x="210" y="209.71" as="sourcePoint" />
          </mxGeometry>
        </mxCell>
        <mxCell id="D1JowyFFF-B-z9rxGy0s-10" style="edgeStyle=orthogonalEdgeStyle;rounded=0;orthogonalLoop=1;jettySize=auto;html=1;" edge="1" parent="1">
          <mxGeometry relative="1" as="geometry">
            <mxPoint x="290" y="329.71000000000004" as="targetPoint" />
            <mxPoint x="210" y="329.71000000000004" as="sourcePoint" />
          </mxGeometry>
        </mxCell>
        <mxCell id="D1JowyFFF-B-z9rxGy0s-11" style="edgeStyle=orthogonalEdgeStyle;rounded=0;orthogonalLoop=1;jettySize=auto;html=1;" edge="1" parent="1">
          <mxGeometry relative="1" as="geometry">
            <mxPoint x="290" y="449.71000000000004" as="targetPoint" />
            <mxPoint x="210" y="449.71000000000004" as="sourcePoint" />
          </mxGeometry>
        </mxCell>
        <mxCell id="D1JowyFFF-B-z9rxGy0s-12" value="80 x 80 x 256" style="text;html=1;align=center;verticalAlign=middle;whiteSpace=wrap;rounded=0;" vertex="1" parent="1">
          <mxGeometry x="170" y="170" width="90" height="30" as="geometry" />
        </mxCell>
        <mxCell id="D1JowyFFF-B-z9rxGy0s-13" value="40 x 40 x 512" style="text;html=1;align=center;verticalAlign=middle;whiteSpace=wrap;rounded=0;" vertex="1" parent="1">
          <mxGeometry x="170" y="290" width="90" height="30" as="geometry" />
        </mxCell>
        <mxCell id="D1JowyFFF-B-z9rxGy0s-14" value="20 x 20 x 1024" style="text;html=1;align=center;verticalAlign=middle;whiteSpace=wrap;rounded=0;" vertex="1" parent="1">
          <mxGeometry x="170" y="410" width="90" height="30" as="geometry" />
        </mxCell>
      </root>
    </mxGraphModel>
  </diagram>
</mxfile>
